# xmcd
#
# Track frame offsets:
#	150
#	13024
#	31657
#	48781
#	59975
#	78361
#	95838
#	111454
#	128988
#	144904
#	160796
#	179087
#
# Disc length: 2617 seconds
#
# Revision: 1
# Processed by: cddbd v1.5.2PL0 Copyright (c) Steve Scherf et al.
# Submitted via: audiograbber 1.83.01
#
DISCID=a50a370c
DTITLE=Die Feisten - Nussschüsselblues Live
DYEAR=2016
DGENRE=
TTITLE0=Kondomverbot
TTITLE1=Ranjid
TTITLE2=Flamingo Dolores
TTITLE3=Hundewelpenfoto
TTITLE4=Nachruf
TTITLE5=Tsunami der Liebe
TTITLE6=Paul und ich
TTITLE7=Gammelfleischparty
TTITLE8=Schönste Braut der Welt
TTITLE9=Versuchslabor
TTITLE10=James B.
TTITLE11=Wulle ma se
EXTD=
EXTT0=
EXTT1=
EXTT2=
EXTT3=
EXTT4=
EXTT5=
EXTT6=
EXTT7=
EXTT8=
EXTT9=
EXTT10=
EXTT11=
PLAYORDER=
